<svg width="2803" height="1000" viewBox="0 0 2803 1000" fill="none" xmlns="http://www.w3.org/2000/svg">
<g filter="url(#filter0_d)">
<path d="M1179.02 591.797C1177.42 613.828 1169.27 631.172 1154.55 643.828C1139.92 656.484 1120.61 662.812 1096.61 662.812C1070.36 662.812 1049.69 654 1034.59 636.375C1019.59 618.656 1012.09 594.375 1012.09 563.531V551.016C1012.09 531.328 1015.56 513.984 1022.5 498.984C1029.44 483.984 1039.33 472.5 1052.17 464.531C1065.11 456.469 1080.11 452.438 1097.17 452.438C1120.8 452.438 1139.83 458.766 1154.27 471.422C1168.7 484.078 1177.05 501.844 1179.3 524.719H1137.11C1136.08 511.5 1132.38 501.938 1126 496.031C1119.72 490.031 1110.11 487.031 1097.17 487.031C1083.11 487.031 1072.56 492.094 1065.53 502.219C1058.59 512.25 1055.03 527.859 1054.84 549.047V564.516C1054.84 586.641 1058.17 602.812 1064.83 613.031C1071.58 623.25 1082.17 628.359 1096.61 628.359C1109.64 628.359 1119.34 625.406 1125.72 619.5C1132.19 613.5 1135.89 604.266 1136.83 591.797H1179.02ZM1197.72 582.516C1197.72 567.422 1200.62 553.969 1206.44 542.156C1212.25 530.344 1220.59 521.203 1231.47 514.734C1242.44 508.266 1255.14 505.031 1269.58 505.031C1290.11 505.031 1306.84 511.312 1319.78 523.875C1332.81 536.438 1340.08 553.5 1341.58 575.062L1341.86 585.469C1341.86 608.812 1335.34 627.562 1322.31 641.719C1309.28 655.781 1291.8 662.812 1269.86 662.812C1247.92 662.812 1230.39 655.781 1217.27 641.719C1204.23 627.656 1197.72 608.531 1197.72 584.344V582.516ZM1238.36 585.469C1238.36 599.906 1241.08 610.969 1246.52 618.656C1251.95 626.25 1259.73 630.047 1269.86 630.047C1279.7 630.047 1287.39 626.297 1292.92 618.797C1298.45 611.203 1301.22 599.109 1301.22 582.516C1301.22 568.359 1298.45 557.391 1292.92 549.609C1287.39 541.828 1279.61 537.938 1269.58 537.938C1259.64 537.938 1251.95 541.828 1246.52 549.609C1241.08 557.297 1238.36 569.25 1238.36 585.469ZM1452.39 545.953C1446.86 545.203 1441.98 544.828 1437.77 544.828C1422.39 544.828 1412.31 550.031 1407.53 560.438V660H1366.89V507.844H1405.28L1406.41 525.984C1414.56 512.016 1425.86 505.031 1440.3 505.031C1444.8 505.031 1449.02 505.641 1452.95 506.859L1452.39 545.953ZM1460.69 582.516C1460.69 567.422 1463.59 553.969 1469.41 542.156C1475.22 530.344 1483.56 521.203 1494.44 514.734C1505.41 508.266 1518.11 505.031 1532.55 505.031C1553.08 505.031 1569.81 511.312 1582.75 523.875C1595.78 536.438 1603.05 553.5 1604.55 575.062L1604.83 585.469C1604.83 608.812 1598.31 627.562 1585.28 641.719C1572.25 655.781 1554.77 662.812 1532.83 662.812C1510.89 662.812 1493.36 655.781 1480.23 641.719C1467.2 627.656 1460.69 608.531 1460.69 584.344V582.516ZM1501.33 585.469C1501.33 599.906 1504.05 610.969 1509.48 618.656C1514.92 626.25 1522.7 630.047 1532.83 630.047C1542.67 630.047 1550.36 626.297 1555.89 618.797C1561.42 611.203 1564.19 599.109 1564.19 582.516C1564.19 568.359 1561.42 557.391 1555.89 549.609C1550.36 541.828 1542.58 537.938 1532.55 537.938C1522.61 537.938 1514.92 541.828 1509.48 549.609C1504.05 557.297 1501.33 569.25 1501.33 585.469ZM1667.27 507.844L1668.53 525.422C1679.41 511.828 1693.98 505.031 1712.27 505.031C1728.39 505.031 1740.39 509.766 1748.27 519.234C1756.14 528.703 1760.17 542.859 1760.36 561.703V660H1719.72V562.688C1719.72 554.062 1717.84 547.828 1714.09 543.984C1710.34 540.047 1704.11 538.078 1695.39 538.078C1683.95 538.078 1675.38 542.953 1669.66 552.703V660H1629.02V507.844H1667.27ZM1879.47 660C1877.59 656.344 1876.23 651.797 1875.39 646.359C1865.55 657.328 1852.75 662.812 1837 662.812C1822.09 662.812 1809.72 658.5 1799.88 649.875C1790.12 641.25 1785.25 630.375 1785.25 617.25C1785.25 601.125 1791.2 588.75 1803.11 580.125C1815.11 571.5 1832.41 567.141 1855 567.047H1873.7V558.328C1873.7 551.297 1871.88 545.672 1868.22 541.453C1864.66 537.234 1858.98 535.125 1851.2 535.125C1844.36 535.125 1838.97 536.766 1835.03 540.047C1831.19 543.328 1829.27 547.828 1829.27 553.547H1788.62C1788.62 544.734 1791.34 536.578 1796.78 529.078C1802.22 521.578 1809.91 515.719 1819.84 511.5C1829.78 507.188 1840.94 505.031 1853.31 505.031C1872.06 505.031 1886.92 509.766 1897.89 519.234C1908.95 528.609 1914.48 541.828 1914.48 558.891V624.844C1914.58 639.281 1916.59 650.203 1920.53 657.609V660H1879.47ZM1845.86 631.734C1851.86 631.734 1857.39 630.422 1862.45 627.797C1867.52 625.078 1871.27 621.469 1873.7 616.969V590.812H1858.52C1838.17 590.812 1827.34 597.844 1826.03 611.906L1825.89 614.297C1825.89 619.359 1827.67 623.531 1831.23 626.812C1834.8 630.094 1839.67 631.734 1845.86 631.734ZM2095.89 585.047H2062.28V660H2020.09V455.25H2096.17C2120.36 455.25 2139.02 460.641 2152.14 471.422C2165.27 482.203 2171.83 497.438 2171.83 517.125C2171.83 531.094 2168.78 542.766 2162.69 552.141C2156.69 561.422 2147.55 568.828 2135.27 574.359L2179.56 658.031V660H2134.28L2095.89 585.047ZM2062.28 550.875H2096.31C2106.91 550.875 2115.11 548.203 2120.92 542.859C2126.73 537.422 2129.64 529.969 2129.64 520.5C2129.64 510.844 2126.88 503.25 2121.34 497.719C2115.91 492.188 2107.52 489.422 2096.17 489.422H2062.28V550.875ZM2289.53 660C2287.66 656.344 2286.3 651.797 2285.45 646.359C2275.61 657.328 2262.81 662.812 2247.06 662.812C2232.16 662.812 2219.78 658.5 2209.94 649.875C2200.19 641.25 2195.31 630.375 2195.31 617.25C2195.31 601.125 2201.27 588.75 2213.17 580.125C2225.17 571.5 2242.47 567.141 2265.06 567.047H2283.77V558.328C2283.77 551.297 2281.94 545.672 2278.28 541.453C2274.72 537.234 2269.05 535.125 2261.27 535.125C2254.42 535.125 2249.03 536.766 2245.09 540.047C2241.25 543.328 2239.33 547.828 2239.33 553.547H2198.69C2198.69 544.734 2201.41 536.578 2206.84 529.078C2212.28 521.578 2219.97 515.719 2229.91 511.5C2239.84 507.188 2251 505.031 2263.38 505.031C2282.12 505.031 2296.98 509.766 2307.95 519.234C2319.02 528.609 2324.55 541.828 2324.55 558.891V624.844C2324.64 639.281 2326.66 650.203 2330.59 657.609V660H2289.53ZM2255.92 631.734C2261.92 631.734 2267.45 630.422 2272.52 627.797C2277.58 625.078 2281.33 621.469 2283.77 616.969V590.812H2268.58C2248.23 590.812 2237.41 597.844 2236.09 611.906L2235.95 614.297C2235.95 619.359 2237.73 623.531 2241.3 626.812C2244.86 630.094 2249.73 631.734 2255.92 631.734ZM2349.44 582.797C2349.44 559.078 2354.73 540.188 2365.33 526.125C2376.02 512.062 2390.59 505.031 2409.06 505.031C2423.88 505.031 2436.11 510.562 2445.77 521.625V444H2486.55V660H2449.84L2447.88 643.828C2437.75 656.484 2424.72 662.812 2408.78 662.812C2390.88 662.812 2376.48 655.781 2365.61 641.719C2354.83 627.562 2349.44 607.922 2349.44 582.797ZM2390.08 585.75C2390.08 600 2392.56 610.922 2397.53 618.516C2402.5 626.109 2409.72 629.906 2419.19 629.906C2431.75 629.906 2440.61 624.609 2445.77 614.016V553.969C2440.7 543.375 2431.94 538.078 2419.47 538.078C2399.88 538.078 2390.08 553.969 2390.08 585.75ZM2606.22 660C2604.34 656.344 2602.98 651.797 2602.14 646.359C2592.3 657.328 2579.5 662.812 2563.75 662.812C2548.84 662.812 2536.47 658.5 2526.62 649.875C2516.88 641.25 2512 630.375 2512 617.25C2512 601.125 2517.95 588.75 2529.86 580.125C2541.86 571.5 2559.16 567.141 2581.75 567.047H2600.45V558.328C2600.45 551.297 2598.62 545.672 2594.97 541.453C2591.41 537.234 2585.73 535.125 2577.95 535.125C2571.11 535.125 2565.72 536.766 2561.78 540.047C2557.94 543.328 2556.02 547.828 2556.02 553.547H2515.38C2515.38 544.734 2518.09 536.578 2523.53 529.078C2528.97 521.578 2536.66 515.719 2546.59 511.5C2556.53 507.188 2567.69 505.031 2580.06 505.031C2598.81 505.031 2613.67 509.766 2624.64 519.234C2635.7 528.609 2641.23 541.828 2641.23 558.891V624.844C2641.33 639.281 2643.34 650.203 2647.28 657.609V660H2606.22ZM2572.61 631.734C2578.61 631.734 2584.14 630.422 2589.2 627.797C2594.27 625.078 2598.02 621.469 2600.45 616.969V590.812H2585.27C2564.92 590.812 2554.09 597.844 2552.78 611.906L2552.64 614.297C2552.64 619.359 2554.42 623.531 2557.98 626.812C2561.55 630.094 2566.42 631.734 2572.61 631.734ZM2757.95 545.953C2752.42 545.203 2747.55 544.828 2743.33 544.828C2727.95 544.828 2717.88 550.031 2713.09 560.438V660H2672.45V507.844H2710.84L2711.97 525.984C2720.12 512.016 2731.42 505.031 2745.86 505.031C2750.36 505.031 2754.58 505.641 2758.52 506.859L2757.95 545.953Z" fill="#FF4400"/>
</g>
<g opacity="0.4">
<g opacity="0.4">
<path opacity="0.4" d="M270.5 228.1L304 286.1L270.5 344.1H203.6L170.1 286.1L203.6 228.1H270.5Z" stroke="#424242" stroke-width="6" stroke-miterlimit="10"/>
</g>
</g>
<g opacity="0.4">
<g opacity="0.4">
<path opacity="0.4" d="M386.5 295L419.9 353L386.5 411H319.6L286.1 353L319.6 295H386.5Z" fill="#424242" stroke="#424242" stroke-width="6" stroke-miterlimit="10"/>
</g>
<g opacity="0.4">
<path opacity="0.4" d="M386.5 428.8L419.9 486.8L386.5 544.8H319.6L286.1 486.8L319.6 428.8H386.5Z" stroke="#424242" stroke-width="6" stroke-miterlimit="10"/>
</g>
</g>
<g opacity="0.4">
<g opacity="0.4">
<path opacity="0.4" d="M502.5 228.1L535.9 286.1L502.5 344.1H435.6L402.1 286.1L435.6 228.1H502.5Z" stroke="#424242" stroke-width="6" stroke-miterlimit="10"/>
</g>
<g opacity="0.4">
<path opacity="0.4" d="M502.5 361.9L535.9 419.9L502.5 477.9H435.6L402.1 419.9L435.6 361.9H502.5Z" fill="#424242" stroke="#424242" stroke-width="6" stroke-miterlimit="10"/>
</g>
</g>
<g opacity="0.4">
<g opacity="0.4">
<path opacity="0.4" d="M618.4 161.2L651.9 219.2L618.4 277.2H551.5L518.1 219.2L551.5 161.2H618.4Z" fill="#424242" stroke="#424242" stroke-width="6" stroke-miterlimit="10"/>
</g>
<g opacity="0.4">
<path opacity="0.4" d="M618.4 295L651.9 353L618.4 411H551.5L518.1 353L551.5 295H618.4Z" stroke="#424242" stroke-width="6" stroke-miterlimit="10"/>
</g>
<g opacity="0.4">
<path opacity="0.4" d="M618.4 428.8L651.9 486.8L618.4 544.8H551.5L518.1 486.8L551.5 428.8H618.4Z" stroke="#424242" stroke-width="6" stroke-miterlimit="10"/>
</g>
</g>
<g opacity="0.4">
<g opacity="0.4">
<path opacity="0.4" d="M734.4 361.9L767.9 419.9L734.4 477.9H667.5L634.1 419.9L667.5 361.9H734.4Z" fill="#424242" stroke="#424242" stroke-width="6" stroke-miterlimit="10"/>
</g>
</g>
<g opacity="0.4">
<g opacity="0.4">
<path opacity="0.4" d="M850.4 161.2L883.9 219.2L850.4 277.2H783.5L750 219.2L783.5 161.2H850.4Z" fill="#424242" stroke="#424242" stroke-width="6" stroke-miterlimit="10"/>
</g>
<g opacity="0.4">
<path opacity="0.4" d="M850.4 295L883.9 353L850.4 411H783.5L750 353L783.5 295H850.4Z" stroke="#424242" stroke-width="6" stroke-miterlimit="10"/>
</g>
</g>
<path d="M367.6 683C365.9 683 364.5 681.6 364.5 679.9V669H340.5V679.9C340.5 681.6 339.1 683 337.4 683H336.4C329.5 683 324 688.6 324 695.4V758.7C324 764.7 328.8 769.5 334.8 769.5H369.2C375.2 769.5 380 764.7 380 758.7V695.4C380 688.6 374.4 683 367.6 683Z" fill="white"/>
<path d="M367.6 683C365.9 683 364.5 681.6 364.5 679.9V669H340.5V679.9C340.5 681.6 339.1 683 337.4 683H336.4C329.5 683 324 688.6 324 695.4V758.7C324 764.7 328.8 769.5 334.8 769.5H369.2C375.2 769.5 380 764.7 380 758.7V695.4C380 688.6 374.4 683 367.6 683Z" stroke="#30292C" stroke-width="4" stroke-miterlimit="10" stroke-linecap="round" stroke-linejoin="round"/>
<path d="M332 669V659.2C332 656.9 333.9 655 336.2 655H369.8C372.1 655 374 656.9 374 659.2V669" fill="#CCCCCC"/>
<path d="M374 669H332V659.2C332 656.9 333.9 655 336.2 655H369.8C372.1 655 374 656.9 374 659.2V669Z" stroke="#30292C" stroke-width="4" stroke-miterlimit="10" stroke-linecap="round" stroke-linejoin="round"/>
<path d="M371.9 700C371.6 697.8 369.8 696 367.5 696C366.6 696 365.7 696.3 365 696.8C364.9 693 361.8 690 358 690C354.1 690 351 693.1 351 697C351 698.1 351 699 351 698.5C351 695.5 348.5 693 345.5 693C342.5 693 340 695.5 340 698.5C340 699 339 699.7 339 699.5C339 697.6 337.4 696 335.5 696C333.6 696 332 697.6 332 699.5C332 699.7 332 699.8 332.1 700H332V758.7C332 760.2 333.2 761.5 334.8 761.5H369.2C370.7 761.5 372 760.3 372 758.7L371.9 700Z" fill="#5CECFF"/>
<path d="M341.7 715C343.301 715 344.6 713.702 344.6 712.1C344.6 710.499 343.301 709.2 341.7 709.2C340.098 709.2 338.8 710.499 338.8 712.1C338.8 713.702 340.098 715 341.7 715Z" fill="#30292C"/>
<path d="M352.9 727.4C353.507 727.4 354 726.908 354 726.3C354 725.693 353.507 725.2 352.9 725.2C352.292 725.2 351.8 725.693 351.8 726.3C351.8 726.908 352.292 727.4 352.9 727.4Z" fill="#30292C"/>
<path d="M351.9 683.4C352.507 683.4 353 682.908 353 682.3C353 681.693 352.507 681.2 351.9 681.2C351.292 681.2 350.8 681.693 350.8 682.3C350.8 682.908 351.292 683.4 351.9 683.4Z" fill="#30292C"/>
<path d="M345.4 686.4C345.731 686.4 346 686.132 346 685.8C346 685.469 345.731 685.2 345.4 685.2C345.068 685.2 344.8 685.469 344.8 685.8C344.8 686.132 345.068 686.4 345.4 686.4Z" fill="#30292C"/>
<path d="M362.4 749.4C363.283 749.4 364 748.684 364 747.8C364 746.917 363.283 746.2 362.4 746.2C361.516 746.2 360.8 746.917 360.8 747.8C360.8 748.684 361.516 749.4 362.4 749.4Z" fill="#30292C"/>
<path d="M359.9 712.4C360.507 712.4 361 711.908 361 711.3C361 710.693 360.507 710.2 359.9 710.2C359.292 710.2 358.8 710.693 358.8 711.3C358.8 711.908 359.292 712.4 359.9 712.4Z" fill="#30292C"/>
<path d="M371.9 700C371.6 697.8 369.8 696 367.5 696C366.6 696 365.7 696.3 365 696.8C364.9 693 361.8 690 358 690C354.1 690 351 693.1 351 697C351 698.1 351 699 351 698.5C351 695.5 348.5 693 345.5 693C342.5 693 340 695.5 340 698.5C340 699 339 699.7 339 699.5C339 697.6 337.4 696 335.5 696C333.6 696 332 697.6 332 699.5C332 699.7 332 699.8 332.1 700H332V758.7C332 760.2 333.2 761.5 334.8 761.5H369.2C370.7 761.5 372 760.3 372 758.7L371.9 700Z" stroke="#30292C" stroke-width="4" stroke-miterlimit="10" stroke-linecap="round" stroke-linejoin="round"/>
<path d="M280.2 614C270.8 614 263.2 606.4 263.2 597V582H223.2V597C223.2 606.4 215.6 614 206.2 614C192.9 614 182.2 624.7 182.2 638V746C182.2 759.3 192.9 770 206.2 770H280.2C293.5 770 304.2 759.3 304.2 746V638C304.2 624.7 293.4 614 280.2 614Z" fill="white"/>
<path d="M255 646C256.933 646 258.5 644.433 258.5 642.5C258.5 640.567 256.933 639 255 639C253.067 639 251.5 640.567 251.5 642.5C251.5 644.433 253.067 646 255 646Z" fill="#FF415B"/>
<path d="M255 646C256.933 646 258.5 644.433 258.5 642.5C258.5 640.567 256.933 639 255 639C253.067 639 251.5 640.567 251.5 642.5C251.5 644.433 253.067 646 255 646Z" stroke="#30292C" stroke-width="4" stroke-miterlimit="10" stroke-linecap="round" stroke-linejoin="round"/>
<path d="M190.2 645V746C190.2 754.8 197.4 762 206.2 762H280.2C289 762 296.2 754.8 296.2 746V645H190.2Z" fill="#FF415B"/>
<path d="M280.2 614C270.8 614 263.2 606.4 263.2 597V582H223.2V597C223.2 606.4 215.6 614 206.2 614C192.9 614 182.2 624.7 182.2 638V746C182.2 759.3 192.9 770 206.2 770H280.2C293.5 770 304.2 759.3 304.2 746V638C304.2 624.7 293.4 614 280.2 614Z" stroke="#30292C" stroke-width="4" stroke-miterlimit="10" stroke-linecap="round" stroke-linejoin="round"/>
<path d="M272.2 566H214.2V594H272.2V566Z" fill="#8E5645"/>
<path d="M225 566H219V594H225V566Z" fill="#AE6553"/>
<path d="M239.3 566H233.3V594H239.3V566Z" fill="#AE6553"/>
<path d="M253.7 566H247.7V594H253.7V566Z" fill="#AE6553"/>
<path d="M268 566H262V594H268V566Z" fill="#AE6553"/>
<path d="M269 566H217.3V563.7C217.3 560 220.3 557 224 557H262.3C266 557 269 560 269 563.7V566Z" fill="#8E5645"/>
<path d="M272.2 566H214.2V594H272.2V566Z" stroke="#30292C" stroke-width="4" stroke-miterlimit="10" stroke-linecap="round" stroke-linejoin="round"/>
<path d="M269 566H217.3V563.7C217.3 560 220.3 557 224 557H262.3C266 557 269 560 269 563.7V566Z" stroke="#30292C" stroke-width="4" stroke-miterlimit="10" stroke-linecap="round" stroke-linejoin="round"/>
<path d="M190.2 645V746C190.2 754.8 197.4 762 206.2 762H280.2C289 762 296.2 754.8 296.2 746V645H190.2Z" stroke="#30292C" stroke-width="4" stroke-miterlimit="10" stroke-linecap="round" stroke-linejoin="round"/>
<path d="M281.2 659H205.2V715H281.2V659Z" fill="#FFC25D"/>
<path d="M281.2 659H205.2V715H281.2V659Z" stroke="#30292C" stroke-width="4" stroke-miterlimit="10" stroke-linecap="round" stroke-linejoin="round"/>
<path d="M198.5 722.1C199.384 722.1 200.1 721.384 200.1 720.5C200.1 719.616 199.384 718.9 198.5 718.9C197.617 718.9 196.9 719.616 196.9 720.5C196.9 721.384 197.617 722.1 198.5 722.1Z" fill="#30292C"/>
<path d="M227.9 732.9C229.336 732.9 230.5 731.736 230.5 730.3C230.5 728.864 229.336 727.7 227.9 727.7C226.464 727.7 225.3 728.864 225.3 730.3C225.3 731.736 226.464 732.9 227.9 732.9Z" fill="#30292C"/>
<path d="M239.6 747.1C241.699 747.1 243.4 745.399 243.4 743.3C243.4 741.201 241.699 739.5 239.6 739.5C237.502 739.5 235.8 741.201 235.8 743.3C235.8 745.399 237.502 747.1 239.6 747.1Z" fill="#30292C"/>
<path d="M275.6 734.1C277.699 734.1 279.4 732.399 279.4 730.3C279.4 728.201 277.699 726.5 275.6 726.5C273.502 726.5 271.8 728.201 271.8 730.3C271.8 732.399 273.502 734.1 275.6 734.1Z" fill="#30292C"/>
<path d="M218 674H269" stroke="#30292C" stroke-width="4" stroke-miterlimit="10" stroke-linecap="round" stroke-linejoin="round"/>
<path d="M241 687H269" stroke="#30292C" stroke-width="4" stroke-miterlimit="10" stroke-linecap="round" stroke-linejoin="round"/>
<path d="M241 698H269" stroke="#30292C" stroke-width="4" stroke-miterlimit="10" stroke-linecap="round" stroke-linejoin="round"/>
<path d="M225 700C228.866 700 232 696.866 232 693C232 689.134 228.866 686 225 686C221.134 686 218 689.134 218 693C218 696.866 221.134 700 225 700Z" stroke="#30292C" stroke-width="4" stroke-miterlimit="10" stroke-linecap="round" stroke-linejoin="round"/>
<path d="M236 631C238.706 631 240.9 628.806 240.9 626.1C240.9 623.394 238.706 621.2 236 621.2C233.294 621.2 231.1 623.394 231.1 626.1C231.1 628.806 233.294 631 236 631Z" fill="#FF415B"/>
<path d="M236 631C238.706 631 240.9 628.806 240.9 626.1C240.9 623.394 238.706 621.2 236 621.2C233.294 621.2 231.1 623.394 231.1 626.1C231.1 628.806 233.294 631 236 631Z" stroke="#30292C" stroke-width="4" stroke-miterlimit="10" stroke-linecap="round" stroke-linejoin="round"/>
<path d="M256.687 619.528C256.864 618.438 256.123 617.411 255.033 617.234C253.943 617.057 252.915 617.797 252.738 618.888C252.561 619.978 253.302 621.005 254.392 621.182C255.482 621.359 256.51 620.619 256.687 619.528Z" stroke="#30292C" stroke-width="4" stroke-miterlimit="10" stroke-linecap="round" stroke-linejoin="round"/>
<path d="M280.8 635.3C282.402 635.3 283.7 634.002 283.7 632.4C283.7 630.798 282.402 629.5 280.8 629.5C279.199 629.5 277.9 630.798 277.9 632.4C277.9 634.002 279.199 635.3 280.8 635.3Z" fill="#30292C"/>
<path d="M204.8 639.3C206.402 639.3 207.7 638.002 207.7 636.4C207.7 634.798 206.402 633.5 204.8 633.5C203.199 633.5 201.9 634.798 201.9 636.4C201.9 638.002 203.199 639.3 204.8 639.3Z" fill="#30292C"/>
<path d="M660.2 728H433.2C425.5 728 419.2 734.3 419.2 742V756C419.2 763.7 425.5 770 433.2 770H443.5C445.8 762.5 452.8 757 461.1 757H632.3C640.6 757 647.6 762.5 649.9 770H660.2C667.9 770 674.2 763.7 674.2 756V742C674.2 734.3 668 728 660.2 728Z" fill="#CCCCCC"/>
<path d="M660.2 728H433.2C425.5 728 419.2 734.3 419.2 742V756C419.2 763.7 425.5 770 433.2 770H443.5C445.8 762.5 452.8 757 461.1 757H632.3C640.6 757 647.6 762.5 649.9 770H660.2C667.9 770 674.2 763.7 674.2 756V742C674.2 734.3 668 728 660.2 728Z" stroke="#30292C" stroke-width="4" stroke-miterlimit="10" stroke-linecap="round" stroke-linejoin="round"/>
<path d="M638.7 566.7C618.1 603.5 578.7 628.5 533.5 628.5C466.9 628.5 413 574.6 413 508C413 446.1 459.7 395.1 519.8 388.3L515.7 364.3C445.4 376.7 392 438.1 392 512C392 594.8 459.2 662 542 662C600.7 662 651.5 628.3 676.2 579.1L638.7 566.7Z" fill="#CCCCCC"/>
<path d="M638.7 566.7C618.1 603.5 578.7 628.5 533.5 628.5C466.9 628.5 413 574.6 413 508C413 446.1 459.7 395.1 519.8 388.3L515.7 364.3C445.4 376.7 392 438.1 392 512C392 594.8 459.2 662 542 662C600.7 662 651.5 628.3 676.2 579.1L638.7 566.7Z" stroke="#30292C" stroke-width="4" stroke-miterlimit="10" stroke-linecap="round" stroke-linejoin="round"/>
<path d="M555.2 728H467.2V634C467.2 609.7 486.9 590 511.2 590C535.5 590 555.2 609.7 555.2 634V728Z" fill="white"/>
<path d="M511.2 660.5C526.112 660.5 538.2 648.412 538.2 633.5C538.2 618.588 526.112 606.5 511.2 606.5C496.289 606.5 484.2 618.588 484.2 633.5C484.2 648.412 496.289 660.5 511.2 660.5Z" fill="#00C899"/>
<path d="M511.2 645.5C517.828 645.5 523.2 640.127 523.2 633.5C523.2 626.873 517.828 621.5 511.2 621.5C504.573 621.5 499.2 626.873 499.2 633.5C499.2 640.127 504.573 645.5 511.2 645.5Z" fill="#00C899"/>
<path d="M555.2 728H467.2V634C467.2 609.7 486.9 590 511.2 590C535.5 590 555.2 609.7 555.2 634V728Z" stroke="#30292C" stroke-width="4" stroke-miterlimit="10" stroke-linecap="round" stroke-linejoin="round"/>
<path d="M511.2 660.5C526.112 660.5 538.2 648.412 538.2 633.5C538.2 618.588 526.112 606.5 511.2 606.5C496.289 606.5 484.2 618.588 484.2 633.5C484.2 648.412 496.289 660.5 511.2 660.5Z" stroke="#30292C" stroke-width="4" stroke-miterlimit="10" stroke-linecap="round" stroke-linejoin="round"/>
<path d="M511.2 645.5C517.828 645.5 523.2 640.127 523.2 633.5C523.2 626.873 517.828 621.5 511.2 621.5C504.573 621.5 499.2 626.873 499.2 633.5C499.2 640.127 504.573 645.5 511.2 645.5Z" fill="#959595"/>
<path d="M511.2 645.5C517.828 645.5 523.2 640.127 523.2 633.5C523.2 626.873 517.828 621.5 511.2 621.5C504.573 621.5 499.2 626.873 499.2 633.5C499.2 640.127 504.573 645.5 511.2 645.5Z" stroke="#30292C" stroke-width="4" stroke-miterlimit="10" stroke-linecap="round" stroke-linejoin="round"/>
<path d="M661 597C675.912 597 688 584.912 688 570C688 555.088 675.912 543 661 543C646.088 543 634 555.088 634 570C634 584.912 646.088 597 661 597Z" fill="white"/>
<path d="M661 597C675.912 597 688 584.912 688 570C688 555.088 675.912 543 661 543C646.088 543 634 555.088 634 570C634 584.912 646.088 597 661 597Z" stroke="#30292C" stroke-width="4" stroke-miterlimit="10" stroke-linecap="round" stroke-linejoin="round"/>
<path d="M661 582C667.627 582 673 576.627 673 570C673 563.373 667.627 558 661 558C654.373 558 649 563.373 649 570C649 576.627 654.373 582 661 582Z" fill="#959595"/>
<path d="M661 582C667.627 582 673 576.627 673 570C673 563.373 667.627 558 661 558C654.373 558 649 563.373 649 570C649 576.627 654.373 582 661 582Z" stroke="#30292C" stroke-width="4" stroke-miterlimit="10" stroke-linecap="round" stroke-linejoin="round"/>
<path d="M541.331 273.772L502.519 283.448L510.865 316.923L549.677 307.247L541.331 273.772Z" fill="#00B2C8"/>
<path d="M546.2 272.6L497.5 284.7C495.5 285.2 493.5 284.1 492.8 282.2L486.9 266.7L547.1 251.7L549.2 268.2C549.5 270.2 548.2 272.1 546.2 272.6Z" fill="white"/>
<path d="M556.402 305.536L504.005 318.598L552.385 512.658L604.782 499.596L556.402 305.536Z" fill="white"/>
<path d="M556.402 305.536L504.005 318.598L552.385 512.658L604.782 499.596L556.402 305.536Z" stroke="#30292C" stroke-width="4" stroke-miterlimit="10" stroke-linecap="round" stroke-linejoin="round"/>
<path d="M599.153 476.814L546.756 489.877L552.441 512.679L604.837 499.616L599.153 476.814Z" fill="#959595"/>
<path d="M599.153 476.814L546.756 489.877L552.441 512.679L604.837 499.616L599.153 476.814Z" stroke="#30292C" stroke-width="4" stroke-miterlimit="10" stroke-linecap="round" stroke-linejoin="round"/>
<path d="M541.331 273.772L502.519 283.448L510.865 316.923L549.677 307.247L541.331 273.772Z" stroke="#30292C" stroke-width="4" stroke-miterlimit="10" stroke-linecap="round" stroke-linejoin="round"/>
<path d="M546.2 272.6L497.5 284.7C495.5 285.2 493.5 284.1 492.8 282.2L486.9 266.7L547.1 251.7L549.2 268.2C549.5 270.2 548.2 272.1 546.2 272.6Z" stroke="#30292C" stroke-width="4" stroke-miterlimit="10" stroke-linecap="round" stroke-linejoin="round"/>
<path d="M575.5 435.9L581.2 458.6" stroke="#30292C" stroke-width="4" stroke-miterlimit="10" stroke-linecap="round" stroke-linejoin="round"/>
<path d="M546.1 317.9L567.2 402.3" stroke="#30292C" stroke-width="4" stroke-miterlimit="10" stroke-linecap="round" stroke-linejoin="round"/>
<path d="M532.7 284.8L537 302.2" stroke="#30292C" stroke-width="4" stroke-miterlimit="10" stroke-linecap="round" stroke-linejoin="round"/>
<path d="M515 403C529.912 403 542 390.912 542 376C542 361.088 529.912 349 515 349C500.088 349 488 361.088 488 376C488 390.912 500.088 403 515 403Z" fill="white"/>
<path d="M515 403C529.912 403 542 390.912 542 376C542 361.088 529.912 349 515 349C500.088 349 488 361.088 488 376C488 390.912 500.088 403 515 403Z" stroke="#30292C" stroke-width="4" stroke-miterlimit="10" stroke-linecap="round" stroke-linejoin="round"/>
<path d="M515 388C521.627 388 527 382.627 527 376C527 369.373 521.627 364 515 364C508.373 364 503 369.373 503 376C503 382.627 508.373 388 515 388Z" fill="#959595"/>
<path d="M515 388C521.627 388 527 382.627 527 376C527 369.373 521.627 364 515 364C508.373 364 503 369.373 503 376C503 382.627 508.373 388 515 388Z" stroke="#30292C" stroke-width="4" stroke-miterlimit="10" stroke-linecap="round" stroke-linejoin="round"/>
<path d="M716 533.7L553.3 577.6C549.6 578.6 545.7 576.4 544.7 572.7C543.7 569 545.9 565.1 549.6 564.1L712.3 520.2C716 519.2 719.9 521.4 720.9 525.1C721.9 528.8 719.7 532.6 716 533.7Z" fill="white"/>
<path d="M716 533.7L553.3 577.6C549.6 578.6 545.7 576.4 544.7 572.7C543.7 569 545.9 565.1 549.6 564.1L712.3 520.2C716 519.2 719.9 521.4 720.9 525.1C721.9 528.8 719.7 532.6 716 533.7Z" stroke="#30292C" stroke-width="4" stroke-miterlimit="10" stroke-linecap="round" stroke-linejoin="round"/>
<path d="M632.2 541.8L557.8 561.9L558.9 553.3L627 534.9L632.2 541.8Z" fill="#959595"/>
<path d="M632.2 541.8L557.8 561.9L558.9 553.3L627 534.9L632.2 541.8Z" stroke="#30292C" stroke-width="4" stroke-miterlimit="10" stroke-linecap="round" stroke-linejoin="round"/>
<path d="M125 770H929" stroke="#30292C" stroke-width="8" stroke-miterlimit="10" stroke-linecap="round" stroke-linejoin="round"/>
<path d="M850 766C839.5 766 831 757.5 831 747V598H869V747C869 757.5 860.5 766 850 766Z" fill="white"/>
<path d="M872 582H828C823.6 582 820 585.6 820 590C820 594.4 823.6 598 828 598H872C876.4 598 880 594.4 880 590C880 585.6 876.4 582 872 582Z" fill="#D8D8D8"/>
<path d="M850 766C839.5 766 831 757.5 831 747V598H869V747C869 757.5 860.5 766 850 766Z" stroke="#30292C" stroke-width="4" stroke-miterlimit="10" stroke-linecap="round" stroke-linejoin="round"/>
<path d="M872 582H828C823.6 582 820 585.6 820 590C820 594.4 823.6 598 828 598H872C876.4 598 880 594.4 880 590C880 585.6 876.4 582 872 582Z" stroke="#30292C" stroke-width="4" stroke-miterlimit="10" stroke-linecap="round" stroke-linejoin="round"/>
<path d="M840 693V747C840 752.5 844.5 757 850 757C855.5 757 860 752.5 860 747V693H840Z" fill="#FF415B"/>
<path d="M840 693V747C840 752.5 844.5 757 850 757C855.5 757 860 752.5 860 747V693H840Z" stroke="#30292C" stroke-width="4" stroke-miterlimit="10" stroke-linecap="round" stroke-linejoin="round"/>
<path d="M845 563C846.767 563 848.2 561.567 848.2 559.8C848.2 558.033 846.767 556.6 845 556.6C843.233 556.6 841.8 558.033 841.8 559.8C841.8 561.567 843.233 563 845 563Z" fill="#EC1CE4"/>
<path d="M832.5 531.5C836.476 531.5 839.7 528.277 839.7 524.3C839.7 520.324 836.476 517.1 832.5 517.1C828.523 517.1 825.3 520.324 825.3 524.3C825.3 528.277 828.523 531.5 832.5 531.5Z" fill="#FF415B"/>
<path d="M866.4 558.1C869.824 558.1 872.6 555.324 872.6 551.9C872.6 548.476 869.824 545.7 866.4 545.7C862.976 545.7 860.2 548.476 860.2 551.9C860.2 555.324 862.976 558.1 866.4 558.1Z" fill="#FF415B"/>
<path d="M845 563C846.767 563 848.2 561.567 848.2 559.8C848.2 558.033 846.767 556.6 845 556.6C843.233 556.6 841.8 558.033 841.8 559.8C841.8 561.567 843.233 563 845 563Z" stroke="#133B4F" stroke-width="4" stroke-miterlimit="10" stroke-linecap="round" stroke-linejoin="round"/>
<path d="M852 540.6C853.16 540.6 854.1 539.66 854.1 538.5C854.1 537.341 853.16 536.4 852 536.4C850.84 536.4 849.9 537.341 849.9 538.5C849.9 539.66 850.84 540.6 852 540.6Z" stroke="#133B4F" stroke-width="4" stroke-miterlimit="10" stroke-linecap="round" stroke-linejoin="round"/>
<path d="M832.5 531.5C836.476 531.5 839.7 528.277 839.7 524.3C839.7 520.324 836.476 517.1 832.5 517.1C828.523 517.1 825.3 520.324 825.3 524.3C825.3 528.277 828.523 531.5 832.5 531.5Z" stroke="#133B4F" stroke-width="4" stroke-miterlimit="10" stroke-linecap="round" stroke-linejoin="round"/>
<path d="M866.4 558.1C869.824 558.1 872.6 555.324 872.6 551.9C872.6 548.476 869.824 545.7 866.4 545.7C862.976 545.7 860.2 548.476 860.2 551.9C860.2 555.324 862.976 558.1 866.4 558.1Z" stroke="#133B4F" stroke-width="4" stroke-miterlimit="10" stroke-linecap="round" stroke-linejoin="round"/>
<path d="M846.5 660.6C850.476 660.6 853.7 657.377 853.7 653.4C853.7 649.424 850.476 646.2 846.5 646.2C842.523 646.2 839.3 649.424 839.3 653.4C839.3 657.377 842.523 660.6 846.5 660.6Z" fill="#FF415B"/>
<path d="M846.5 660.6C850.476 660.6 853.7 657.377 853.7 653.4C853.7 649.424 850.476 646.2 846.5 646.2C842.523 646.2 839.3 649.424 839.3 653.4C839.3 657.377 842.523 660.6 846.5 660.6Z" stroke="#30292C" stroke-width="4" stroke-miterlimit="10" stroke-linecap="round" stroke-linejoin="round"/>
<path d="M852.8 681.2C854.512 681.2 855.9 679.812 855.9 678.1C855.9 676.388 854.512 675 852.8 675C851.088 675 849.7 676.388 849.7 678.1C849.7 679.812 851.088 681.2 852.8 681.2Z" fill="#FF415B"/>
<path d="M852.8 681.2C854.512 681.2 855.9 679.812 855.9 678.1C855.9 676.388 854.512 675 852.8 675C851.088 675 849.7 676.388 849.7 678.1C849.7 679.812 851.088 681.2 852.8 681.2Z" stroke="#30292C" stroke-width="4" stroke-miterlimit="10" stroke-linecap="round" stroke-linejoin="round"/>
<path d="M856.8 616.3C859.175 616.3 861.1 614.375 861.1 612C861.1 609.625 859.175 607.7 856.8 607.7C854.425 607.7 852.5 609.625 852.5 612C852.5 614.375 854.425 616.3 856.8 616.3Z" fill="#FF415B"/>
<path d="M856.8 616.3C859.175 616.3 861.1 614.375 861.1 612C861.1 609.625 859.175 607.7 856.8 607.7C854.425 607.7 852.5 609.625 852.5 612C852.5 614.375 854.425 616.3 856.8 616.3Z" stroke="#30292C" stroke-width="4" stroke-miterlimit="10" stroke-linecap="round" stroke-linejoin="round"/>
<path d="M841.8 606.9C842.684 606.9 843.4 606.184 843.4 605.3C843.4 604.417 842.684 603.7 841.8 603.7C840.917 603.7 840.2 604.417 840.2 605.3C840.2 606.184 840.917 606.9 841.8 606.9Z" fill="#67CC70"/>
<path d="M841.8 606.9C842.684 606.9 843.4 606.184 843.4 605.3C843.4 604.417 842.684 603.7 841.8 603.7C840.917 603.7 840.2 604.417 840.2 605.3C840.2 606.184 840.917 606.9 841.8 606.9Z" stroke="#30292C" stroke-width="4" stroke-miterlimit="10" stroke-linecap="round" stroke-linejoin="round"/>
<path d="M851.2 710.2C852.084 710.2 852.8 709.484 852.8 708.6C852.8 707.716 852.084 707 851.2 707C850.316 707 849.6 707.716 849.6 708.6C849.6 709.484 850.316 710.2 851.2 710.2Z" fill="#30292C"/>
<path d="M842.6 728C844.036 728 845.2 726.836 845.2 725.4C845.2 723.964 844.036 722.8 842.6 722.8C841.164 722.8 840 723.964 840 725.4C840 726.836 841.164 728 842.6 728Z" fill="#30292C"/>
<path d="M854.3 742.2C856.399 742.2 858.1 740.499 858.1 738.4C858.1 736.301 856.399 734.6 854.3 734.6C852.201 734.6 850.5 736.301 850.5 738.4C850.5 740.499 852.201 742.2 854.3 742.2Z" fill="#30292C"/>
<path d="M848.7 704.5C849.032 704.5 849.3 704.232 849.3 703.9C849.3 703.569 849.032 703.3 848.7 703.3C848.369 703.3 848.1 703.569 848.1 703.9C848.1 704.232 848.369 704.5 848.7 704.5Z" fill="#30292C"/>
<path d="M782.1 766C771.6 766 763.1 757.5 763.1 747V598H801.1V747C801.1 757.5 792.6 766 782.1 766Z" fill="white"/>
<path d="M782.1 766C771.6 766 763.1 757.5 763.1 747V598H801.1V747C801.1 757.5 792.6 766 782.1 766Z" stroke="#30292C" stroke-width="4" stroke-miterlimit="10" stroke-linecap="round" stroke-linejoin="round"/>
<path d="M797.9 562.3H766.4V598H797.9V562.3Z" fill="#CE7867"/>
<path d="M797.9 562.3H766.4V598H797.9V562.3Z" stroke="#30292C" stroke-width="4" stroke-miterlimit="10" stroke-linecap="round" stroke-linejoin="round"/>
<path d="M804.1 582H760.1C755.7 582 752.1 585.6 752.1 590C752.1 594.4 755.7 598 760.1 598H804.1C808.5 598 812.1 594.4 812.1 590C812.1 585.6 808.5 582 804.1 582Z" fill="#D8D8D8"/>
<path d="M804.1 582H760.1C755.7 582 752.1 585.6 752.1 590C752.1 594.4 755.7 598 760.1 598H804.1C808.5 598 812.1 594.4 812.1 590C812.1 585.6 808.5 582 804.1 582Z" stroke="#30292C" stroke-width="4" stroke-miterlimit="10" stroke-linecap="round" stroke-linejoin="round"/>
<path d="M772.1 640V747C772.1 752.5 776.6 757 782.1 757C787.6 757 792.1 752.5 792.1 747V640H772.1Z" fill="#5CECFF"/>
<path d="M772.1 640V747C772.1 752.5 776.6 757 782.1 757C787.6 757 792.1 752.5 792.1 747V640H772.1Z" stroke="#30292C" stroke-width="4" stroke-miterlimit="10" stroke-linecap="round" stroke-linejoin="round"/>
<path d="M775.8 673C777.457 673 778.8 671.657 778.8 670C778.8 668.343 777.457 667 775.8 667C774.143 667 772.8 668.343 772.8 670C772.8 671.657 774.143 673 775.8 673Z" fill="#30292C"/>
<path d="M775.8 621.8C778.562 621.8 780.8 619.561 780.8 616.8C780.8 614.038 778.562 611.8 775.8 611.8C773.039 611.8 770.8 614.038 770.8 616.8C770.8 619.561 773.039 621.8 775.8 621.8Z" fill="#5CECFF"/>
<path d="M775.8 621.8C778.562 621.8 780.8 619.561 780.8 616.8C780.8 614.038 778.562 611.8 775.8 611.8C773.039 611.8 770.8 614.038 770.8 616.8C770.8 619.561 773.039 621.8 775.8 621.8Z" stroke="#30292C" stroke-width="4" stroke-miterlimit="10" stroke-linecap="round" stroke-linejoin="round"/>
<path d="M788.4 688C789.505 688 790.4 687.105 790.4 686C790.4 684.895 789.505 684 788.4 684C787.296 684 786.4 684.895 786.4 686C786.4 687.105 787.296 688 788.4 688Z" fill="#30292C"/>
<path d="M780.5 740.2C781.494 740.2 782.3 739.394 782.3 738.4C782.3 737.406 781.494 736.6 780.5 736.6C779.506 736.6 778.7 737.406 778.7 738.4C778.7 739.394 779.506 740.2 780.5 740.2Z" fill="#30292C"/>
<path d="M781.5 731.1C783.102 731.1 784.4 729.801 784.4 728.2C784.4 726.598 783.102 725.3 781.5 725.3C779.898 725.3 778.6 726.598 778.6 728.2C778.6 729.801 779.898 731.1 781.5 731.1Z" fill="#30292C"/>
<path d="M782.1 766C771.6 766 763.1 757.5 763.1 747V598H801.1V747C801.1 757.5 792.6 766 782.1 766Z" stroke="#30292C" stroke-width="4" stroke-miterlimit="10" stroke-linecap="round" stroke-linejoin="round"/>
<path d="M900 741H733V755H762.1C764.8 762.9 772.2 768.5 781 768.5C789.8 768.5 797.2 762.9 799.9 755H829.9C832.4 763.1 840 769 849 769C858 769 865.5 763.1 868.1 755H900V741Z" fill="#CCCCCC"/>
<path d="M900 741H733V755H762.1C764.8 762.9 772.2 768.5 781 768.5C789.8 768.5 797.2 762.9 799.9 755H829.9C832.4 763.1 840 769 849 769C858 769 865.5 763.1 868.1 755H900V741Z" stroke="#30292C" stroke-width="4" stroke-miterlimit="10" stroke-linecap="round" stroke-linejoin="round"/>
<defs>
<filter id="filter0_d" x="1008.09" y="444" width="1754.42" height="226.812" filterUnits="userSpaceOnUse" color-interpolation-filters="sRGB">
<feFlood flood-opacity="0" result="BackgroundImageFix"/>
<feColorMatrix in="SourceAlpha" type="matrix" values="0 0 0 0 0 0 0 0 0 0 0 0 0 0 0 0 0 0 127 0"/>
<feOffset dy="4"/>
<feGaussianBlur stdDeviation="2"/>
<feColorMatrix type="matrix" values="0 0 0 0 0 0 0 0 0 0 0 0 0 0 0 0 0 0 0.25 0"/>
<feBlend mode="normal" in2="BackgroundImageFix" result="effect1_dropShadow"/>
<feBlend mode="normal" in="SourceGraphic" in2="effect1_dropShadow" result="shape"/>
</filter>
</defs>
</svg>
